<?xml version="1.0" encoding="utf-8" ?>
<!-- Generator: Assembly 1.0 - http://assemblyapp.co -->
<svg version="1.1" xmlns="http://www.w3.org/2000/svg" xmlns:xlink="http://www.w3.org/1999/xlink" width="300" height="300" viewBox="0 0 300 300">
	<g id="widget" transform="matrix(1,0,0,1,150,150)">
		<path d="M122.277,31.851 C111.699,46.1091 95.3709,54.848 77.4332,54.848 C55.356,54.848 49.8367,40.1299 49.8367,18.9726 C49.8367,-27.9415 72.3738,-88.4238 97.6706,-88.4238 C108.019,-88.4238 111.699,-81.7546 111.699,-74.3956 C111.699,-65.6567 106.639,-55.9979 101.12,-53.2382 C105.49,-48.1789 110.549,-47.259 114.229,-47.259 C125.957,-47.259 130.326,-56.2279 130.326,-68.4163 C130.326,-90.7235 113.539,-99.2324 91.9213,-99.2324 C31.669,-99.2324 11.6615,-21.2723 11.6615,20.3524 C11.6615,61.7472 27.9895,76.9252 62.0251,76.9252 C82.9525,76.9252 115.378,64.9668 127.567,34.1507 Z" fill="#bebebe" fill-opacity="1" />
		<path d="M-35.1458,-77.6152 C-39.2853,-78.995 -43.1948,-79.4549 -47.1043,-79.4549 C-88.499,-79.4549 -109.426,-8.85388 -109.426,28.4014 C-109.426,61.9771 -92.4085,74.6255 -68.2616,74.6255 C-60.4426,74.6255 -53.3135,73.4757 -46.8743,71.4059 C-42.7348,84.9742 -37.4455,99.2324 -17.2081,99.2324 C-7.31934,99.2324 0.499671,95.3229 6.47891,79.4549 C4.63915,79.6849 3.02935,79.9149 1.41955,79.9149 C-13.0686,79.9149 -20.4277,70.946 -27.3268,61.2872 C3.25932,38.5201 16.5976,-7.93399 16.5976,-40.3599 C16.5976,-74.6255 2.33944,-99.2324 -37.9055,-99.2324 C-86.4293,-99.2324 -130.584,-68.6463 -130.584,-36.4504 C-130.584,-22.4222 -121.845,-17.1328 -107.357,-17.1328 C-107.357,-18.9726 -109.656,-20.5824 -109.656,-29.5512 C-109.656,-66.1166 -78.6103,-88.6537 -43.4248,-88.6537 C-19.2778,-88.6537 -13.9885,-75.0855 -13.9885,-48.4089 C-13.9885,-15.2931 -26.6369,23.572 -42.2749,43.3495 C-47.1043,39.67 -52.8536,37.1403 -60.6726,37.1403 C-64.812,37.1403 -69.4115,37.8302 -74.9308,39.21 C-75.3907,36.2204 -75.3907,33.0008 -75.3907,29.3213 C-75.3907,-6.09423 -56.0731,-64.9668 -35.1458,-77.6152 Z M-62.0524,55.9979 C-67.5717,55.9979 -71.0213,52.5483 -73.091,46.5691 C-70.5613,45.8792 -68.4916,45.6492 -66.4218,45.6492 C-59.9827,45.6492 -56.0731,48.8688 -53.3135,53.4682 C-56.0731,55.308 -59.2927,55.9979 -62.0524,55.9979 Z" fill="#5a7494" fill-opacity="1" />
	</g>
</svg>
